<svg width="18" height="15" viewBox="0 0 18 15" fill="none" xmlns="http://www.w3.org/2000/svg">
<path d="M4.57178 9.89231L2.38853 1.34372H5.72205e-05V0H3.43219L3.94687 2.01518L17.8411 2.00524L16.3639 9.89225H4.57178V9.89231ZM4.28995 3.35866L5.61543 8.54857H15.2485L16.2221 3.35012L4.28995 3.35866Z" fill="white"/>
<path d="M6.41148 14.7892C5.22662 14.7892 4.26266 13.8252 4.26266 12.6404C4.26266 11.4555 5.22662 10.4916 6.41148 10.4916H14.5074C15.6923 10.4916 16.6562 11.4555 16.6562 12.6404C16.6562 13.8252 15.6923 14.7892 14.5074 14.7892C13.3225 14.7892 12.3586 13.8252 12.3586 12.6404C12.3586 12.3558 12.4143 12.0841 12.5152 11.8353H8.40366C8.50458 12.0841 8.56033 12.3558 8.56033 12.6404C8.56031 13.8252 7.59635 14.7892 6.41148 14.7892ZM13.7023 12.6404C13.7023 13.0843 14.0635 13.4455 14.5074 13.4455C14.9513 13.4455 15.3125 13.0843 15.3125 12.6404C15.3125 12.1964 14.9514 11.8353 14.5074 11.8353C14.0635 11.8353 13.7023 12.1964 13.7023 12.6404ZM5.60636 12.6404C5.60636 13.0843 5.96752 13.4455 6.41146 13.4455C6.8554 13.4455 7.21657 13.0843 7.21657 12.6404C7.21657 12.1964 6.8554 11.8353 6.41146 11.8353C5.96752 11.8353 5.60636 12.1964 5.60636 12.6404Z" fill="white"/>
</svg>
