<svg width="18" height="18" viewBox="0 0 18 18" fill="none" xmlns="http://www.w3.org/2000/svg">
<path d="M8.00776 0.0112358C6.78829 0.119574 5.72135 0.42444 4.66112 0.973199C2.605 2.03679 1.0402 3.92024 0.359239 6.13878C0.0950219 6.9993 0.000292493 7.64951 0.000292493 8.64541C-0.00306545 9.45838 0.0206169 9.71924 0.169604 10.4576C0.359239 11.3959 0.867349 12.6085 1.41275 13.4317C3.5196 16.5854 7.32698 18.0113 10.9649 17.0122C12.4383 16.609 13.7764 15.8097 14.867 14.6885C17.4719 12.0057 18.0646 7.99502 16.3439 4.68232C15.6699 3.38156 14.6673 2.26371 13.4344 1.4373C12.9839 1.13915 12.12 0.698909 11.6154 0.512631C11.1582 0.346677 10.484 0.173831 9.95236 0.0925335C9.52873 0.0248443 8.3872 -0.0226972 8.00776 0.0112358ZM9.68443 1.61351C10.4771 1.7321 11.1206 1.93534 11.8355 2.29429C12.5468 2.65341 13.126 3.06997 13.6814 3.62881C15.0432 4.99726 15.7646 6.73844 15.7646 8.66237C15.7646 10.2578 15.2768 11.7075 14.3048 12.9947C13.5494 13.9906 12.3943 14.8576 11.1884 15.3217C10.7683 15.4843 10.057 15.6605 9.58281 15.7248C9.08159 15.7892 8.22443 15.7892 7.72993 15.7248C6.45303 15.5555 5.22331 15.0338 4.20038 14.2242C3.89215 13.9803 3.33314 13.4215 3.08925 13.1132C2.43551 12.2867 1.9274 11.2367 1.70719 10.2544C1.4769 9.23146 1.4769 8.1 1.70719 7.07035C1.92404 6.09142 2.43887 5.02783 3.08925 4.2115C4.19702 2.82608 5.81625 1.8878 7.5843 1.61687C8.16028 1.52868 9.09856 1.52867 9.68443 1.61351Z" fill="white"/>
<path d="M8.14347 1.87419C8.09611 1.8878 8.09947 1.98606 8.16716 2.77854C8.20781 3.26633 8.24174 3.68642 8.2451 3.70675C8.2451 3.74068 8.35007 3.75076 8.65158 3.75076C8.95309 3.75076 9.05807 3.74068 9.05807 3.70675C9.06142 3.68642 9.09535 3.26633 9.136 2.77854L9.21394 1.89116L9.14272 1.87419C9.06478 1.85387 8.22141 1.85387 8.14347 1.87419Z" fill="white"/>
<path d="M6.50049 2.21299C6.25995 2.29764 6.03302 2.37558 6.00262 2.38583C5.96869 2.39591 5.94165 2.41977 5.94165 2.44345C5.94165 2.46377 6.10425 2.85665 6.30413 3.3174C6.58868 3.97449 6.68005 4.1507 6.7207 4.13373C6.74774 4.12366 6.91369 4.06269 7.08654 4.00171C7.26274 3.94074 7.41173 3.88312 7.41845 3.87641C7.43877 3.85608 6.98827 2.05746 6.96123 2.05746C6.95098 2.05711 6.74438 2.12833 6.50049 2.21299Z" fill="white"/>
<path d="M10.0943 2.9581C9.96896 3.45596 9.87405 3.86935 9.8843 3.87606C9.89102 3.88278 10.0402 3.94039 10.2162 4.00137C10.3889 4.06234 10.555 4.12331 10.5821 4.13339C10.6227 4.15035 10.7143 3.96743 11.0089 3.29337L11.3883 2.42613L11.263 2.37541C11.1038 2.30772 10.5213 2.10783 10.4094 2.08079L10.318 2.05711L10.0943 2.9581Z" fill="white"/>
<path d="M4.63409 3.16824C4.48846 3.27658 4.29529 3.43581 4.20727 3.51711L4.04468 3.6661L4.67138 4.34352C5.01354 4.71608 5.3048 5.02094 5.31151 5.02094C5.32176 5.02094 5.44017 4.93293 5.57573 4.82795C5.71129 4.71961 5.85356 4.6111 5.88731 4.58741C5.95164 4.54005 5.93132 4.50276 5.44689 3.75747C5.16906 3.3273 4.93206 2.97507 4.92181 2.97171C4.91174 2.97171 4.78308 3.05972 4.63409 3.16824Z" fill="white"/>
<path d="M11.8522 3.75765L11.3474 4.54005L11.4423 4.6111C11.4966 4.65175 11.615 4.74312 11.7099 4.8177C11.8013 4.89228 11.9029 4.97358 11.9335 4.9939C11.9844 5.03119 12.0724 4.94654 12.6245 4.35024L13.2579 3.66592L13.102 3.5203C12.9327 3.36442 12.4144 2.97154 12.3806 2.97154C12.3705 2.97507 12.1334 3.32748 11.8522 3.75765Z" fill="white"/>
<path d="M7.94005 4.14028C5.97548 4.45203 4.42746 6.01348 4.12931 7.98494C3.8278 9.95288 4.86099 11.9007 6.66986 12.7813C7.35753 13.1132 8.01799 13.2521 8.80393 13.2251C9.06479 13.215 9.40005 13.1845 9.54921 13.1505C11.3547 12.7746 12.7638 11.3653 13.1397 9.56C13.2244 9.16022 13.2414 8.41511 13.177 8.00191C12.8688 5.99669 11.3208 4.44178 9.329 4.14045C8.93595 4.0793 8.32621 4.0793 7.94005 4.14028ZM9.37619 5.69518C10.4804 5.99669 11.2528 6.74516 11.5847 7.83596C11.6693 8.10689 11.6796 8.18819 11.6796 8.66254C11.6796 9.13672 11.6693 9.21802 11.5882 9.48559C11.2664 10.5356 10.5246 11.2775 9.47445 11.5993C9.20688 11.6806 9.12558 11.6909 8.6514 11.6909C8.17723 11.6909 8.09593 11.6808 7.82835 11.5993C6.47687 11.1861 5.60292 10.0276 5.60292 8.63886C5.60292 7.39571 6.42597 6.22379 7.60143 5.80034C8.02488 5.64782 8.25181 5.61406 8.73624 5.63103C8.99003 5.63756 9.26096 5.6646 9.37619 5.69518Z" fill="white"/>
<path d="M9.08495 6.51486C8.89531 6.61648 8.83434 6.89413 8.95629 7.09402C9.0139 7.19228 9.01726 7.21597 8.97661 7.31423C8.95293 7.3752 8.90539 7.49715 8.87499 7.58516L8.81402 7.74776H8.62438C8.37713 7.74776 8.1366 7.85963 7.96393 8.04927L7.83527 8.19154L7.56769 8.09663C7.32044 8.00862 7.30012 7.99501 7.26619 7.87642C7.13752 7.45633 6.51754 7.51394 6.45993 7.951C6.41928 8.23555 6.63949 8.45576 6.92067 8.41511C7.00197 8.40486 7.09334 8.37446 7.12392 8.34389C7.17817 8.29652 7.1985 8.29299 7.30012 8.33363C7.36445 8.36068 7.4864 8.40822 7.57777 8.43861L7.737 8.49959V8.6894C7.737 8.93665 7.8487 9.17719 8.03851 9.35003L8.18414 9.4787L8.08906 9.74627C8.01448 9.96313 7.98408 10.0172 7.91285 10.0342C7.76722 10.0715 7.67232 10.1561 7.61824 10.3017C7.57087 10.4203 7.57087 10.461 7.60799 10.576C7.71633 10.9079 8.20747 10.9656 8.36335 10.6607C8.42768 10.5354 8.42768 10.3219 8.36335 10.2339C8.29566 10.1459 8.29902 10.1019 8.40064 9.82068L8.49201 9.57678H8.68164C8.92554 9.57678 9.16607 9.46509 9.33874 9.27528L9.4674 9.12965L9.73833 9.22455C9.97551 9.30585 10.0093 9.32953 10.0398 9.42444C10.1144 9.64801 10.355 9.78003 10.5616 9.71234C10.7478 9.65137 10.8528 9.50238 10.8528 9.29913C10.8528 9.15015 10.8392 9.11621 10.7376 9.01459C10.636 8.91297 10.5987 8.89936 10.453 8.89936C10.3412 8.89936 10.2599 8.91969 10.2058 8.96369C10.1245 9.02467 10.1211 9.02467 9.84667 8.92304L9.56549 8.82142V8.63179C9.56549 8.38789 9.45379 8.14736 9.26398 7.97469L9.12171 7.84602L9.21662 7.57509C9.30127 7.33456 9.3216 7.3008 9.40625 7.28383C9.53845 7.25679 9.69415 7.09084 9.72119 6.94857C9.7652 6.70132 9.56531 6.46078 9.31806 6.46078C9.24083 6.46396 9.13567 6.48429 9.08495 6.51486ZM8.76648 8.16097C8.82073 8.24898 8.75623 8.33363 8.61395 8.36421C8.48193 8.39125 8.34638 8.53016 8.34638 8.64204C8.34638 8.79102 8.17707 8.84864 8.09913 8.72669C8.01112 8.58442 8.20411 8.23219 8.43104 8.13392C8.56323 8.07295 8.71911 8.08656 8.76648 8.16097Z" fill="white"/>
<path d="M3.13348 4.67896C2.96417 4.90588 2.6897 5.35638 2.6897 5.40374C2.6897 5.42071 3.05554 5.63756 3.50603 5.87792L4.31901 6.3217L4.39359 6.1964C4.43424 6.12871 4.5325 5.97283 4.6138 5.85424C4.6951 5.73565 4.74936 5.62731 4.73239 5.6137C4.65445 5.54248 3.29625 4.49586 3.28264 4.49586C3.27575 4.49604 3.20806 4.57734 3.13348 4.67896Z" fill="white"/>
<path d="M13.3426 5.00751C12.9904 5.28869 12.6618 5.54266 12.6176 5.57659L12.533 5.63757L12.6515 5.80352C12.7192 5.89489 12.8141 6.0407 12.865 6.12871C12.9159 6.22008 12.9734 6.29131 12.9939 6.29131C13.0549 6.29131 14.613 5.43768 14.613 5.40375C14.613 5.32245 14.0845 4.52644 14.0202 4.50948C14.0032 4.50612 13.6984 4.72969 13.3426 5.00751Z" fill="white"/>
<path d="M2.17818 6.55216C2.13082 6.68082 1.9919 7.22623 1.96133 7.39907C1.94101 7.53109 1.94436 7.53799 2.03591 7.55831C2.25948 7.60232 3.78381 7.84957 3.78717 7.84285C3.82111 7.79195 3.97009 7.08413 3.94977 7.06381C3.92944 7.04684 2.25948 6.46097 2.22555 6.46097C2.21883 6.46061 2.19851 6.50126 2.17818 6.55216Z" fill="white"/>
<path d="M14.1896 6.75541C13.7255 6.918 13.336 7.05002 13.3293 7.05692C13.3192 7.06363 13.4952 7.81564 13.5156 7.84268C13.5223 7.85629 15.3311 7.54806 15.3481 7.5311C15.3921 7.48709 15.1313 6.49119 15.0703 6.47422C15.05 6.46733 14.6571 6.59617 14.1896 6.75541Z" fill="white"/>
<path d="M1.84302 8.84865C1.84302 9.09926 1.91071 9.72259 1.94128 9.75635C1.96161 9.77667 3.26572 9.58032 3.7095 9.48877C3.7908 9.47181 3.79416 9.46845 3.77048 9.29578C3.75687 9.19752 3.74344 9.01796 3.74344 8.8893L3.74008 8.66237H2.79155H1.84302V8.84865V8.84865Z" fill="white"/>
<path d="M13.5596 8.8893C13.5596 9.01797 13.546 9.19417 13.529 9.28908C13.5154 9.38045 13.5053 9.46192 13.5087 9.46528C13.5324 9.49232 15.3446 9.7735 15.365 9.75318C15.392 9.72614 15.4597 9.06215 15.4597 8.82497V8.66238H14.5111H13.5626L13.5596 8.8893Z" fill="white"/>
<path d="M3.11308 10.566C2.62865 10.7353 2.22905 10.8742 2.22216 10.8809C2.20519 10.8979 2.41515 11.3991 2.54399 11.6566L2.67266 11.9072L3.46867 11.4703C3.90555 11.2332 4.27829 11.0299 4.29508 11.0232C4.31204 11.0198 4.29844 10.9622 4.26468 10.8979C4.23075 10.8336 4.15634 10.6643 4.09873 10.522L3.99375 10.2645L3.11308 10.566Z" fill="white"/>
<path d="M13.1529 10.6305L12.9937 11.003L13.0681 11.0471C13.2036 11.1317 14.6025 11.8804 14.6228 11.8804C14.6771 11.8804 15.1106 10.9117 15.0733 10.8744C15.0666 10.8677 14.6871 10.7321 14.2366 10.5762C13.7828 10.4204 13.3864 10.285 13.3593 10.2747C13.3224 10.2611 13.2681 10.3493 13.1529 10.6305Z" fill="white"/>
<path d="M3.46545 11.6738C3.3944 11.7483 3.36719 11.8058 3.36719 11.8973C3.36719 12.0498 3.51971 12.2191 3.65509 12.2191C3.8684 12.2191 4.04461 12.0193 3.99724 11.8263C3.93291 11.5755 3.64837 11.4942 3.46545 11.6738Z" fill="white"/>
<path d="M12.5063 11.7075C12.503 11.7278 12.3844 11.8632 12.2455 12.0157L11.9949 12.2902L12.1135 12.4155C12.1778 12.4832 12.425 12.7543 12.6656 13.0152C12.9027 13.276 13.133 13.5233 13.1737 13.5673C13.221 13.618 13.2652 13.635 13.3059 13.6215C13.3736 13.5943 14.0036 12.8932 14.0003 12.8458C14.0003 12.8255 13.7327 12.6053 13.4075 12.3547C12.5503 11.6941 12.5198 11.6702 12.5063 11.7075Z" fill="white"/>
<path d="M4.02099 12.2732C3.62475 12.5815 3.29956 12.8457 3.29956 12.8557C3.29956 12.9031 3.98388 13.6417 4.02452 13.6417C4.06181 13.6417 4.93241 12.7271 5.24399 12.3646C5.30496 12.2902 5.30496 12.2902 5.0441 11.9988C4.89847 11.8395 4.76981 11.7109 4.75956 11.7109C4.74931 11.7109 4.41387 11.965 4.02099 12.2732Z" fill="white"/>
<path d="M5.46734 13.5468C5.19641 13.96 4.97284 14.3157 4.96595 14.3394C4.95923 14.3598 5.04389 14.4343 5.15223 14.4987C5.38251 14.6376 5.91094 14.9052 5.92455 14.8882C5.92791 14.8815 6.09051 14.519 6.28014 14.0819C6.46978 13.645 6.63926 13.2589 6.65605 13.2283C6.68309 13.1809 6.65941 13.1571 6.53075 13.103C6.44609 13.0623 6.28686 12.9777 6.17852 12.9134C6.07018 12.849 5.97863 12.7948 5.96856 12.7948C5.96184 12.7948 5.73492 13.1336 5.46734 13.5468Z" fill="white"/>
<path d="M11.0227 12.9676C10.8668 13.059 10.7178 13.1336 10.6942 13.1336C10.6705 13.1336 10.6501 13.1505 10.6501 13.1709C10.6501 13.2012 11.3378 14.7933 11.3852 14.8712C11.4022 14.9016 12.1542 14.519 12.2828 14.4105L12.3708 14.3359L11.8694 13.5738C11.5918 13.1572 11.3546 12.8117 11.3376 12.8048C11.3242 12.8017 11.1819 12.8762 11.0227 12.9676Z" fill="white"/>
<path d="M7.21847 14.3394C7.08981 14.8339 6.9949 15.2473 7.00515 15.2574C7.03555 15.2878 7.60464 15.3963 7.85878 15.42L8.09596 15.4436L8.1739 14.5223C8.21454 14.0142 8.24159 13.5908 8.23151 13.5841C8.22126 13.574 8.07899 13.5434 7.90968 13.5197C7.74372 13.496 7.57088 13.4655 7.52687 13.4554C7.44893 13.4351 7.44557 13.452 7.21847 14.3394Z" fill="white"/>
<path d="M9.43375 13.5095C9.24076 13.5434 9.07816 13.5772 9.07127 13.5807C9.06455 13.5874 9.21354 15.3659 9.22379 15.4336C9.23404 15.4709 10.2501 15.3048 10.301 15.2574C10.318 15.2371 10.1925 14.6917 9.96573 13.8347C9.90811 13.6145 9.84378 13.4418 9.82345 13.4418C9.80295 13.4452 9.62692 13.4757 9.43375 13.5095Z" fill="white"/>
</svg>
